<svg width="62" height="49" viewBox="0 0 62 49" fill="none" xmlns="http://www.w3.org/2000/svg">
<g clip-path="url(#clip0_1802_2294)">
<path d="M30.206 37.3326C31.1741 36.321 32.1137 35.3378 33.0501 34.3546C34.6445 32.6885 36.239 31.0193 37.8334 29.3532C38.2669 28.9012 38.7667 28.566 39.4089 28.4997C40.8325 28.3542 41.8607 29.3564 42.0031 30.5293C42.0632 31.0193 42.0252 31.4935 41.8164 31.9487C41.7089 32.1858 41.5538 32.3913 41.3703 32.5747C39.6114 34.3261 37.8556 36.0775 36.0966 37.8258C36.0017 37.9206 35.9922 37.9649 36.0903 38.066C38.0929 40.1273 40.0954 42.1948 42.0948 44.2624C42.8193 45.0116 43.0534 46.115 42.6326 47.0191C42.2119 47.9264 41.4779 48.407 40.4687 48.4512C39.6525 48.4892 39.0198 48.1541 38.4851 47.5629C35.7771 44.5722 33.0659 41.5847 30.3547 38.5972C30.3167 38.5529 30.2756 38.5118 30.2313 38.4644C30.1902 38.5213 30.2092 38.5782 30.2092 38.6319C30.2092 40.9967 30.2092 43.3614 30.206 45.7261C30.206 46.899 29.5258 47.9296 28.4692 48.3026C26.6976 48.9286 25.2265 47.6451 24.9893 46.2667C24.9576 46.0802 24.9513 45.8905 24.9513 45.7008C24.9513 37.0639 24.9513 28.4301 24.9513 19.7932C24.9513 18.5128 25.7359 17.4284 26.9064 17.125C28.735 16.6507 30.0573 18.1081 30.1807 19.3537C30.1965 19.5213 30.206 19.6888 30.206 19.8564C30.206 25.6101 30.206 31.367 30.206 37.1208C30.206 37.1809 30.206 37.2378 30.206 37.3326Z" fill="black"/>
<path d="M56.6665 45.8147C56.5083 45.9949 56.3659 46.1687 56.2141 46.33C54.898 47.7431 53.2688 48.4291 51.339 48.4513C50.0198 48.4671 48.7891 48.1762 47.6914 47.4333C46.1317 46.3806 45.2079 44.9105 44.8758 43.0643C44.7745 42.5078 44.7366 41.9483 44.7366 41.3824C44.7366 38.0029 44.7366 34.6202 44.7366 31.2406C44.7366 30.0393 45.4231 29.0182 46.4797 28.6325C48.0583 28.0571 49.8078 29.1604 49.9755 30.836C49.9913 31.0004 49.9976 31.1616 49.9976 31.326C49.9976 34.2692 49.9976 37.2125 49.9976 40.1558C49.9976 40.9746 50.1558 41.746 50.6367 42.4257C51.3074 43.3709 52.2438 43.7914 53.389 43.7851C55.265 43.7756 56.4735 42.3877 56.6443 40.7786C56.6696 40.5415 56.676 40.3075 56.676 40.0704C56.676 37.1272 56.676 34.1839 56.676 31.2406C56.676 30.0678 57.2075 29.1857 58.2673 28.7115C60.0072 27.9306 61.6049 29.192 61.8864 30.6242C61.9181 30.7854 61.9212 30.9466 61.9212 31.111C61.9212 36.0175 61.9117 40.9272 61.9275 45.8336C61.9307 47.0286 60.9405 48.2742 59.6498 48.4418C58.3179 48.6157 56.9702 47.6514 56.7329 46.3268C56.7076 46.1656 56.6918 45.998 56.6665 45.8147Z" fill="black"/>
<path d="M54.2367 12.399C54.8409 12.6298 55.442 12.8638 56.0463 13.0914C57.7325 13.7268 59.4218 14.3623 61.108 14.9977C61.4244 15.1178 61.6743 15.3138 61.8293 15.6237C61.8894 15.7469 61.9242 15.8766 61.9242 16.0188C61.9242 18.5732 61.9242 21.1245 61.9211 23.6789C61.9211 24.1341 61.5572 24.5388 61.0606 24.6589C60.7885 24.7253 60.5196 24.7063 60.2538 24.6083C57.995 23.7579 55.7362 22.9107 53.4806 22.0603C49.3774 20.5175 45.2774 18.9716 41.1742 17.4257C41.0477 17.3782 40.9148 17.3466 40.8009 17.2676C40.8484 17.2233 40.899 17.2455 40.9496 17.2581C41.1869 17.3182 41.4178 17.296 41.6456 17.2075C43.395 16.5247 45.1508 15.8481 46.9035 15.1716C49.2509 14.2643 51.5951 13.3506 53.9425 12.4496C54.0057 12.4243 54.069 12.399 54.1291 12.3643C54.1734 12.3453 54.2082 12.3643 54.2367 12.399Z" fill="#6F3A96"/>
<path d="M54.2367 12.3989C54.2051 12.3894 54.1735 12.3831 54.1418 12.3736C54.0691 12.4084 54.009 12.3673 53.9457 12.3452C51.5002 11.4315 49.0548 10.5052 46.6093 9.58844C45.0307 8.99726 43.4552 8.40291 41.8797 7.80541C41.6077 7.70108 41.3388 7.68844 41.0572 7.71373C41.0003 7.72005 40.9433 7.74218 40.8927 7.6916C41.1838 7.53669 41.5033 7.43869 41.8101 7.31856C45.0402 6.06664 48.2734 4.81473 51.5034 3.56598C53.6768 2.72504 55.847 1.88727 58.0204 1.04634C58.7892 0.749171 59.5516 1.2708 59.5516 2.09909C59.5547 4.56814 59.5516 7.03719 59.5516 9.50624C59.5516 10.0532 59.308 10.423 58.7923 10.6254C57.6313 11.0806 56.4671 11.5264 55.306 11.9753C54.9485 12.1144 54.5911 12.2598 54.2367 12.3989Z" fill="#00C3FF"/>
<path d="M40.8895 7.69166C41.4336 7.54939 41.9113 7.77385 42.3985 7.95721C45.3312 9.0637 48.267 10.1639 51.1996 11.2704C52.1803 11.6402 53.1579 12.0101 54.1386 12.38C54.107 12.4622 54.0215 12.4622 53.9614 12.4875C52.6612 12.9933 51.361 13.496 50.0576 13.9986C48.6529 14.5424 47.2483 15.0798 45.8437 15.6236C44.6352 16.0915 43.4267 16.5625 42.2182 17.0304C42.022 17.1063 41.8259 17.1822 41.6298 17.258C41.3545 17.3624 41.0761 17.3466 40.7977 17.2675C40.3358 17.0525 40.1081 16.6827 40.1081 16.1768C40.1049 14.9249 40.1081 13.673 40.1081 12.4211C40.1081 11.2577 40.1176 10.0975 40.1049 8.93408C40.0954 8.33658 40.3169 7.90979 40.8895 7.69166Z" fill="#581689"/>
<path d="M21.7277 31.2278C21.7277 31.0318 21.7119 30.839 21.6771 30.6461C21.462 29.4669 20.3895 28.5312 19.2095 28.4837C17.7321 28.4237 16.7798 29.5586 16.5521 30.4723C16.4761 30.7757 16.4635 31.0856 16.4635 31.4365C16.4065 31.3669 16.3749 31.329 16.3464 31.2942C15.5777 30.3521 14.6381 29.6313 13.515 29.1571C12.5501 28.7493 11.5378 28.5564 10.4938 28.4995C9.18405 28.43 7.90279 28.5691 6.67848 29.0401C4.2615 29.9728 2.55316 31.6767 1.44273 33.9877C0.522128 35.9099 0.354458 37.9584 0.607546 40.045C0.841652 41.9671 1.59142 43.6742 2.85053 45.1506C3.98626 46.4847 5.35294 47.4869 7.03597 48.0243C8.53551 48.5017 10.0667 48.5586 11.6105 48.3183C13.5213 48.0212 15.1158 47.1455 16.3496 45.6438C16.3781 45.609 16.397 45.5521 16.4572 45.5458C16.4666 45.7165 16.473 45.8777 16.4825 46.0421C16.5679 47.3857 17.9535 48.8621 19.8074 48.3563C20.9463 48.0465 21.7277 46.9653 21.7277 45.7228C21.7277 40.8922 21.7277 36.0584 21.7277 31.2278ZM12.1863 43.4466C10.7912 43.6806 9.4403 43.5478 8.20333 42.8143C6.54878 41.8343 5.75155 40.3611 5.76104 38.4421C5.76737 37.0669 6.18813 35.8593 7.19731 34.8919C8.08628 34.0383 9.14925 33.5578 10.3767 33.4376C11.5441 33.3238 12.6672 33.4693 13.7143 34.0225C15.4227 34.9235 16.3528 36.501 16.3528 38.4737C16.3686 41.4708 14.192 43.1084 12.1863 43.4466Z" fill="black"/>
</g>
<defs>
<clipPath id="clip0_1802_2294">
<rect width="61.4307" height="47.5" fill="neutral-0" transform="translate(0.5 0.963928)"/>
</clipPath>
</defs>
</svg>
